<?xml version="1.0" encoding="UTF-8"?>
<!DOCTYPE svg PUBLIC "-//W3C//DTD SVG 1.1//EN" "http://www.w3.org/Graphics/SVG/1.1/DTD/svg11.dtd">
<!-- Creator: CorelDRAW 2020 (64-Bit) -->
<svg xmlns="http://www.w3.org/2000/svg" xml:space="preserve" width="11.6929in" height="8.26772in" version="1.1" style="shape-rendering:geometricPrecision; text-rendering:geometricPrecision; image-rendering:optimizeQuality; fill-rule:evenodd; clip-rule:evenodd"
viewBox="0 0 11692.91 8267.72"
 xmlns:xlink="http://www.w3.org/1999/xlink"
 xmlns:xodm="http://www.corel.com/coreldraw/odm/2003">
 <defs>
  <style type="text/css">
   <![CDATA[
    .fil0 {fill:white}
   ]]>
  </style>
 </defs>
 <g id="Layer_x0020_1">
  <metadata id="CorelCorpID_0Corel-Layer"/>
  <g id="_2218791692880">
   <path class="fil0" d="M7453.94 3817.19l0 -0.77 -3.93 0c-3.09,-0.65 -6.18,-1.39 -9.28,-2.19l0 -1.11 -4.22 0c-2.99,-0.83 -5.98,-1.75 -8.98,-2.72l0 -0.59 -1.81 0c-8.16,-2.7 -16.35,-5.87 -24.59,-9.5l0 -0.41 -0.94 0c-1.89,-0.83 -3.77,-1.7 -5.67,-2.58l0 -0.72 -1.55 0c-1.68,-0.8 -3.37,-1.61 -5.05,-2.44l0 -0.86 -1.75 0c-1.61,-0.81 -3.23,-1.64 -4.85,-2.48l0 -0.82 -1.6 0c-1.67,-0.87 -3.33,-1.77 -5,-2.67l0 -0.63 -1.17 0c-7.28,-3.97 -14.59,-8.24 -21.94,-12.8l0 -0.4 -0.65 0c-3.08,-1.91 -6.17,-3.88 -9.26,-5.89l0 -0.71 -1.11 0c-2.93,-1.91 -5.85,-3.85 -8.8,-5.85l0 -0.76 -1.11 0c-10.54,-7.17 -21.17,-14.84 -31.91,-22.96l0 -0.15 -0.19 0c-5.41,-4.09 -10.85,-8.31 -16.31,-12.62l0 -0.59 -0.74 0c-7.94,-6.28 -15.95,-12.76 -24.02,-19.44 -2.76,-2.28 -5.51,-4.57 -8.26,-6.87l0 -0.09 -0.11 0c-7.7,-6.46 -15.36,-13.07 -23,-19.81l-3.3 -2.93 0 -0.38 -0.43 0 -2.88 -2.57 0 -0.74 -0.82 0c-11.92,-10.68 -23.76,-21.67 -35.49,-32.95l0 -0.06 -0.06 0 -3.24 -3.13 0 -0.17 -0.17 0 -3.13 -3.04 0 -0.26 -0.27 0 -3.03 -2.96 0 -0.34 -0.35 0 -2.96 -2.91 0 -0.39 -0.4 0 -2.9 -2.87 0 -0.43 -0.43 0 -2.87 -2.86 0 -0.44 -0.44 0 -2.86 -2.87 0 -0.43 -0.43 0 -2.87 -2.9 0 -0.4 -0.39 0 -2.91 -2.95 0 -0.35 -0.35 0 -2.96 -3.02 0 -0.28 -0.27 0 -3.03 -3.12 0 -0.19 -0.18 0 -3.12 -3.23 0 -0.07 -0.07 0c-13.36,-13.87 -26.55,-28.09 -39.55,-42.62l0 -0.3 -0.26 0c-6.57,-7.35 -13.09,-14.77 -19.55,-22.27l0 -0.84 -0.72 0 -2.58 -3 0 -0.3 -0.26 0c-5.46,-6.37 -10.87,-12.8 -16.25,-19.28l0 -0.53 -0.44 0c-5.4,-6.51 -10.76,-13.07 -16.07,-19.68l0 -0.13 -0.11 0c-3.28,-4.08 -6.55,-8.18 -9.8,-12.3l0 -0.91 -0.71 0 -2.59 -3.29 0 -0.01 -0.01 0c-3.31,-4.23 -6.61,-8.48 -9.89,-12.74l0 -0.46 -0.35 0c-3.2,-4.17 -6.39,-8.35 -9.55,-12.55l0 -0.66 -0.5 0c-3.15,-4.19 -6.29,-8.39 -9.41,-12.61l0 -0.6 -0.44 0c-3.62,-4.9 -7.22,-9.82 -10.78,-14.76 -5.03,-6.97 -10.1,-14.15 -15.19,-21.53l0 -0.03 -0.02 0c-2.19,-3.18 -4.39,-6.39 -6.58,-9.63l0 -0.27 -0.19 0c-4.33,-6.39 -8.67,-12.93 -13.02,-19.56l0 -0.24 -0.16 0c-36.15,-55.22 -72.65,-118.39 -105.48,-181.31l0 -0.26 -0.14 0c-12.69,-24.32 -24.82,-48.61 -36.18,-72.38l0 -0.25 -0.12 0c-14.91,-31.22 -28.47,-61.57 -40.16,-89.96 -2.09,-5.05 -4.07,-10.02 -5.94,-14.92l0 -0.76 -0.3 0c-1.04,-2.72 -2.04,-5.41 -3,-8.08l0 -1.82 -0.65 0c-0.92,-2.56 -1.8,-5.09 -2.66,-7.61l0 -2.29 -0.77 0c-0.87,-2.61 -1.72,-5.21 -2.53,-7.78l0 -2.12 -0.67 0c-2.22,-7.18 -4.2,-14.2 -5.93,-21.05l0 -2.06 -0.51 0c-1.02,-4.11 -1.95,-8.16 -2.8,-12.15l0 -4.35 -0.87 0c-0.93,-4.69 -1.74,-9.31 -2.43,-13.85l0 -2.66 -0.4 0c-3.86,-26.88 -3.62,-50.96 -0,-72.63l0.4 0 0 -2.29c0.87,-4.86 1.91,-9.6 3.11,-14.22l0.19 0 0 -0.7c1.75,-6.61 3.84,-12.97 6.23,-19.11l0.37 0 0 -0.94c0.76,-1.91 1.54,-3.8 2.35,-5.66l0.95 0 0 -2.12c4.44,-9.78 9.68,-18.96 15.62,-27.59l0.88 0 0 -1.26c2.06,-2.94 4.21,-5.83 6.43,-8.65l0.17 0 0 -0.22c10.53,-13.32 22.79,-25.26 36.29,-36.09l0.02 0 0 -0.02c4.24,-3.4 8.61,-6.69 13.09,-9.89l0.12 0 0 -0.09c3.11,-2.22 6.29,-4.39 9.5,-6.52l0.41 0 0 -0.27c1.53,-1.01 3.07,-2.01 4.62,-3l0 0c9.02,-5.75 18.46,-11.26 28.27,-16.54l0.12 0 0 -0.06c6.27,-3.37 12.68,-6.66 19.22,-9.84l0.59 0 0 -0.29c2.09,-1.02 4.2,-2.02 6.31,-3.01l0.29 0 0 -0.13c46.36,-21.8 98.85,-39.17 151.85,-52.69l0.02 0 0 -0c30.81,-7.86 61.78,-14.42 91.82,-19.8l0.62 0 0 -0.11c13.43,-2.4 26.66,-4.56 39.6,-6.49l0.01 0c5.33,-0.8 10.62,-1.56 15.85,-2.28 -89.46,18.19 -122.15,58.63 -119.18,116.93 4.62,81.84 94.75,237.93 137.67,307.65 75.27,121.69 164.41,231.39 263.11,332.51 80.22,79.17 130.41,96.4 215.91,-20.7 73.29,-96.27 140.96,-192.07 198.74,-311.52 25.42,-52.49 48.86,-109.74 69.99,-174.04 22.45,-75.01 14.2,-141.4 -59.09,-190.26 4.57,2.22 8.97,4.56 13.2,7.01l0 0.72 1.22 0 2.08 1.24 0 2.06 3.33 0c1.11,0.7 2.19,1.4 3.28,2.12l0 1.19 1.78 0 1.52 1.05 0 2.25 3.18 0c1.15,0.83 2.3,1.68 3.42,2.53l0 0.77 1 0 2.3 1.8 0 1.5 1.85 0c7.82,6.41 14.89,13.3 21.26,20.63l0 2.48 2.12 0 1.18 1.43 0 1.87 1.51 0 1.8 2.3 0 1 0.76 0c2.03,2.68 3.98,5.41 5.84,8.19l0 1.72 1.13 0c3.17,4.85 6.09,9.83 8.77,14.93l0 1.57 0.81 0c0.85,1.67 1.69,3.34 2.49,5.03l0 1.57 0.74 0c0.89,1.91 1.74,3.83 2.56,5.77l0 4.13 1.7 0c0.55,1.37 1.08,2.76 1.6,4.15l0 2.45 0.9 0c2.18,6.07 4.07,12.26 5.7,18.56l0 1.25 0.33 0c1.13,4.45 2.11,8.95 2.98,13.5l0 6.31 1.11 0c0.91,5.6 1.64,11.26 2.19,16.97l0 2.84 0.26 0c0.15,1.76 0.29,3.52 0.41,5.28 0.65,10.23 0.73,20.6 0.35,31.03l-1.01 0 0 17.02c-0.7,8.65 -1.68,17.29 -2.88,25.89l-0.42 0 0 2.9c-1.8,12.4 -4.04,24.69 -6.55,36.71l-0.05 0 0 0.24c-4.87,23.28 -10.72,45.58 -16.28,65.79l-0.22 0 0 0.82c-1.46,5.3 -2.9,10.44 -4.29,15.43 -2.85,9.99 -5.76,19.98 -8.74,29.98l-0.18 0 0 0.6 -2.79 9.3 -0.52 0 0 1.71c-2.15,7.13 -4.33,14.27 -6.55,21.4l-0.05 0 0 0.16 -3.06 9.74 -0.24 0 0 0.78 -2.89 9.13 -0.41 0 0 1.28c-5.16,16.12 -10.47,32.21 -15.95,48.24l-0.56 0 0 1.61 -2.86 8.29 -0.44 0 0 1.27 -3.01 8.64 -0.29 0 0 0.82 -3.22 9.08 -0.08 0 0 0.23c-4.3,12.07 -8.7,24.1 -13.19,36.08l-0.01 0 0 0.04c-4.14,11.04 -8.36,22.04 -12.67,32.98l-0.54 0 0 1.36c-2,5.06 -4.01,10.1 -6.04,15.14l-0.57 0 0 1.41c-2.04,5.04 -4.09,10.08 -6.17,15.1l-0.44 0 0 1.05c-2.14,5.17 -4.3,10.32 -6.47,15.46l-0.13 0 0 0.32c-3.23,7.63 -6.51,15.22 -9.83,22.79l-0.07 0 0 0.17c-5.33,12.15 -10.78,24.2 -16.33,36.15l-0.18 0 0 0.39 -2.91 6.22 -0.4 0 0 0.85 -2.72 5.75 -0.57 0 0 1.21c-6.35,13.35 -12.84,26.54 -19.48,39.59 -8.52,16.69 -17.45,33.99 -26.73,51.63l-0.02 0 0 0.03c-7.43,14.13 -15.08,28.47 -22.91,42.89l-0.2 0 0 0.37c-10.69,19.68 -21.71,39.49 -32.97,59.06l-0.05 0 0 0.08c-3.16,5.5 -6.34,10.98 -9.54,16.43l-0.36 0 0 0.61c-3.13,5.33 -6.27,10.63 -9.43,15.89l-0.48 0 0 0.8c-8.6,14.35 -17.3,28.44 -26.06,42.11l-0.35 0 0 0.55c-2.01,3.14 -4.03,6.26 -6.04,9.35l-0.56 0 0 0.86c-1.98,3.04 -3.96,6.06 -5.95,9.05l-0.65 0 0 0.98c-2,3 -4,5.97 -6,8.92l-0.6 0 0 0.89c-2.06,3.04 -4.13,6.04 -6.19,9.02l-0.41 0 0 0.59c-2.19,3.14 -4.37,6.24 -6.56,9.31l-0.05 0 0 0.07c-1.65,2.32 -3.3,4.63 -4.95,6.9 -1.54,2.12 -3.09,4.18 -4.63,6.24l-0.32 0 0 0.44 -2.16 2.86 -1.14 0 0 1.48c-3.09,4.04 -6.19,7.95 -9.28,11.73l-0.62 0 0 0.77 -2.11 2.53 -1.19 0 0 1.41 -1.6 1.89 -1.7 0 0 2.02 -1.12 1.28 -2.18 0 0 2.46c-3.28,3.71 -6.57,7.31 -9.85,10.74l-0.06 0 0 0.06c-1.06,1.1 -2.11,2.17 -3.16,3.24l-0.14 0 0 0.14c-1.04,1.06 -2.09,2.13 -3.13,3.16l-0.18 0 0 0.17c-1.07,1.06 -2.14,2.1 -3.21,3.13l-0.09 0 0 0.08c-4.84,4.66 -9.69,9.05 -14.52,13.12l-1.98 0 0 1.63 -2.04 1.67 -1.26 0 0 1.04c-0.97,0.78 -1.94,1.51 -2.91,2.26l-0.39 0 0 0.3c-1.31,1.01 -2.62,2.03 -3.93,3l-2.67 0 0 1.93 -1.91 1.37 -1.4 0 0 0.99c-2.85,1.98 -5.7,3.83 -8.56,5.61l-1.35 0 0 0.84c-5.46,3.36 -10.92,6.38 -16.38,9.06l-0.13 0 0 0.06c-2.33,1.14 -4.66,2.22 -6.99,3.24l-2.92 0 0 1.28c-1.7,0.71 -3.41,1.37 -5.11,2.02l-4.79 0 0 1.72c-1.59,0.55 -3.19,1.08 -4.78,1.58l-5.13 0 0 1.52c-9.27,2.56 -18.55,4.23 -27.87,5.08l-29.86 0c-6.05,-0.54 -12.12,-1.38 -18.2,-2.53z"/>
   <path class="fil0" d="M7156.81 2912.13l0 -0.27 -0.14 0c-10.22,-19.36 -20.3,-39.43 -29.57,-59.37l0 -0.06 -0.03 0c-4.62,-9.94 -9.04,-19.86 -13.18,-29.65l0 -0.07 -0.03 0c-2.28,-5.41 -4.48,-10.76 -6.57,-16.07l0 -0.44 -0.17 0c-6.61,-16.79 -12.21,-32.99 -16.34,-48.09l0 -1.43 -0.39 0c-2.87,-10.69 -5,-20.8 -6.21,-30.13l0 -2.88 -0.34 0c-0.28,-2.56 -0.51,-5.06 -0.65,-7.5 -0.71,-13.95 0.63,-26.88 4.29,-38.72l0 -0.01c3.35,-10.82 8.64,-20.74 16.1,-29.7l0.41 0 0 -0.49c3.78,-4.48 8.11,-8.72 13.01,-12.72l0.2 0 0 -0.16c5.78,-4.69 12.34,-9.04 19.74,-13.04l0.06 0 0 -0.04c2.07,-1.12 4.21,-2.2 6.41,-3.26l0.2 0 0 -0.09c10.35,-4.98 22.16,-9.36 35.53,-13.11l0.79 0 0 -0.22c3.89,-1.08 7.91,-2.11 12.06,-3.08l1.15 0 0 -0.27c3.01,-0.7 6.09,-1.37 9.24,-2.01 11.76,-1.57 23.54,-3.02 35.29,-4.32l8.29 0 0 -0.9c8.09,-0.86 16.17,-1.66 24.22,-2.4l8.79 0 0 -0.79c10.81,-0.94 21.57,-1.77 32.29,-2.51l0.73 0 0 -0.05c21.26,-1.45 42.3,-2.52 62.98,-3.25l22.86 0 0 -0.67c12.83,-0.3 25.5,-0.47 37.96,-0.52l0 0c9.9,0 19.81,-0.13 29.71,-0.13 16.16,0 32.13,0.12 47.87,0.55l0 0.77 20.93 0c6.72,0.32 13.39,0.71 20.01,1.19 41.76,3 83.39,6.65 124.13,11.94l0 0.07 0.59 0c7.54,0.98 15.04,2.02 22.52,3.13l0 0.18 1.2 0c6.22,0.93 12.43,1.89 18.6,2.91l0 0.39 2.35 0c5.85,0.98 11.67,1.99 17.46,3.06l0 0.25 1.34 0c10.66,1.97 21.21,4.1 31.67,6.41l0 0.19 0.87 0c4.13,0.92 8.24,1.86 12.34,2.83l0 0.47 1.95 0c3.77,0.91 7.52,1.83 11.25,2.79l0 0.51 2 0c3.75,0.97 7.49,1.96 11.21,2.99l0 0.31 1.13 0c2.49,0.69 4.98,1.39 7.46,2.11 4.76,1.39 9.61,2.84 14.52,4.37l0 0.13 0.4 0c3.15,0.98 6.32,1.98 9.5,3.03l0 0.27 0.82 0c3.02,0.99 6.04,2.01 9.08,3.06l0 0.24 0.71 0c3.07,1.06 6.13,2.16 9.2,3.29l0 0.01 0.04 0c5.52,2.03 11.02,4.17 16.47,6.43l0 0.17 0.41 0c2.07,0.86 4.14,1.74 6.19,2.64l0 0.67 1.51 0c6.12,2.7 12.14,5.57 17.97,8.62l0.33 0.17c9.98,6.65 18.75,13.64 26.41,20.92l0 0.01 0.01 0c1.12,1.06 2.22,2.13 3.3,3.21l0 0.09 0.08 0c6.27,6.32 11.72,12.86 16.43,19.6l0 0.21 0.15 0c3.72,5.35 6.96,10.83 9.75,16.44l0 0.06 0.03 0c2.56,5.14 4.75,10.39 6.57,15.73l0 0.78 0.26 0c10.11,30.24 8.85,63.58 0.01,99.04l-0.26 0 0 1.04c-1.1,4.35 -2.31,8.72 -3.63,13.13l-2.97 8.94 0 0c-3,8.94 -6.04,17.74 -9.12,26.41l-0.78 0 0 2.19 -2.79 7.72 -0.52 0 0 1.41 -3.13 8.49 -0.17 0 0 0.45c-2.01,5.4 -4.05,10.75 -6.09,16.06l-0.51 0 0 1.32c-6.41,16.53 -12.98,32.58 -19.72,48.2l-0.08 0 0 0.2 -2.78 6.41 -0.52 0 0 1.18c-3.25,7.41 -6.54,14.72 -9.87,21.93l-0.04 0 0 0.08 -3.02 6.52 -0.28 0 0 0.59c-2.51,5.37 -5.04,10.68 -7.59,15.95 -5.98,12.3 -12.06,24.4 -18.25,36.28l-0.57 0 0 1.09 -2.9 5.51 -0.4 0 0 0.76 -3.11 5.85 -0.19 0 0 0.35c-3.8,7.07 -7.64,14.06 -11.56,20.98 4.29,-33.48 2.97,-63.06 -39.28,-84.85 -125.78,-65.43 -484.97,-43.08 -623.29,-22.38 -13.09,-22.25 -27.81,-48.22 -42.26,-75.59z"/>
   <path class="fil0" d="M6864.98 4172.17l0 138.06c0,32.22 -26.41,58.46 -58.43,58.46l-66.02 0c-45.89,0 -46.22,0.69 -46.22,-64.87l0 -148.2c0,-65.53 0.33,-64.84 46.22,-64.84l66.02 0c32.02,0 58.43,26.25 58.43,58.47l0 22.91zm370.08 89.73l142.29 0 0 74.31c0,30.83 -89.8,32.22 -146.91,30.83 -41.93,-0.99 -36.98,0.13 -38.63,-37.11 -0.99,-13.73 -0.33,-27.63 -0.33,-41.5 0,-28.49 5.94,-26.54 43.58,-26.54zm485.63 216.93c0.99,-128.32 2.31,-256.51 3.63,-384.87 32.35,0 64.7,-0.1 97.06,-0.1 28.72,0.26 51.17,17.33 51.17,46.52 0.33,112.77 0.33,225.55 0.33,338.45l130.73 0c0.99,-112.21 1.98,-224.43 3.3,-336.54 0.66,-89 -34,-167.61 -139.65,-167.61l-59.76 0c-34.99,1.39 -57.77,11.92 -83.85,37.2 -22.45,21.66 -21.79,33.48 -21.79,-0.96l0 -33.48 -111.59 0.13c0,166.81 0.66,334.43 0.99,501.24l129.41 0zm-1806.49 0c0.99,-128.32 2.31,-256.51 3.3,-384.87 32.02,0 64.04,-0.1 96.07,-0.1 25.42,0.26 50.18,16.51 50.51,43.87l0 17.63 0.33 323.46 128.75 0 3.63 -385.26c35,0 69.99,0 104.98,-0.13 31.03,0 51.17,17.5 51.17,47.21l0.66 338.19 127.43 0 4.62 -363.74c0.66,-77.48 -41.93,-141.4 -129.41,-140.57 -28.06,0.3 -55.8,0.56 -83.52,0.86 -41.93,0.26 -64.38,8.06 -90.13,34.86 -19.15,20 -9.9,20.27 -27.4,1.39 -26.08,-27.63 -57.11,-36.94 -96.4,-36.94l-58.76 0c-35.98,1.39 -58.76,12.64 -85.5,39.85 -21.46,21.52 -18.82,28.76 -18.82,-5.15l0 -31.5 0 0 0 0c-36.31,0.13 -73.62,0.4 -109.93,0.53 0.33,166.82 0.33,333.6 0.66,500.42l127.76 0zm-465.16 -387.78c-32.35,0 -58.76,26.41 -58.76,58.47l0 156.42c0,32.22 26.41,58.6 58.76,58.6l64.38 0c32.02,0 58.43,-26.38 58.43,-58.6l0 -156.42c0,-32.06 -26.41,-58.47 -58.43,-58.47l-64.38 0zm-25.09 -122.08l114.56 0c89.13,0 162.43,73.19 162.43,162.66l0 192.37c0,89.3 -73.29,162.49 -162.43,162.49l-114.56 0c-89.46,0 -162.43,-73.19 -162.43,-162.49l0 -192.37c0,-89.47 72.96,-162.66 162.43,-162.66zm-1738.81 509.86l127.43 2.51 4.95 -503.62 -133.04 0.69 0.66 500.42zm801.23 -503.06c-27.4,0 -54.8,0 -82.2,0 0,40.28 -0.33,80.42 -0.66,120.7 28.39,0.13 54.8,0.3 82.86,0.56 0,40.7 0,84.02 0,124.99 -0.33,43.08 -0.66,83.49 -0.33,118.62 0.33,50.97 9.91,94.88 38.96,117.92 12.22,9.74 29.38,14.72 50.84,17.24 50.84,5.68 114.56,2.9 157.8,-11.26 -1.32,-34.43 -2.64,-69.03 -3.96,-103.46 -50.51,4.98 -112.25,15.81 -112.25,-10 0,-87.92 0,-165.86 0,-253.74 40.61,-0.16 78.9,-0.43 119.51,-0.56 -0.33,-40.15 -0.33,-80.16 -0.33,-120.3 -39.62,-0.13 -79.23,-0.4 -118.85,-0.53 0,-40.01 0,-80.02 -0.33,-119.87 -43.57,0 -87.48,0.13 -131.06,0.13 0,39.85 0,79.72 0,119.57zm704.5 486.42l-11.55 -113.9c-58.76,4.85 -120.83,21.09 -183.56,14.03 -62.72,-6.96 -70.32,-40.01 -70.98,-90.98 -0.33,-30.7 -1.32,-65.43 0.66,-95.7 2.31,-41.67 14.53,-68.47 70.32,-74.71 62.72,-7.06 124.79,9.18 183.56,14.03l11.55 -113.89c-224.49,-53.06 -364.46,-26.54 -395.83,147.5 -6.28,36.38 -3.63,156.25 5.28,190.42 39.95,152.09 176.95,173.59 390.55,123.21zm3029.96 16.64l3.96 -214.56c0.33,-13.2 11.89,4.43 15.19,9.71 42.59,71.37 81.87,124.99 144.93,188.34 17.83,17.89 21.46,16.51 53.15,16.51l135.35 0c-98.71,-81.64 -153.84,-146.81 -206.33,-245.82 -10.57,-22.78 -9.91,-20.27 5.28,-41.53 19.48,-22.65 43.91,-53.06 71.31,-84.19l115.22 -135.69c0.66,-0.96 0.99,-2.08 1.65,-3.04l-122.48 0c-22.78,0 -21.79,-3.46 -37.63,13.6 -46.55,50.41 -100.03,109.31 -143.28,156.94 -5.28,5.85 -11.56,10.14 -17.17,14.03 -17.5,12.78 -14.53,9.44 -14.53,-8.91l-0.99 -364.57 -130.73 0.96 -1.65 698.2 128.75 0zm-4123.04 -387.78l64.71 0c32.02,0 58.43,26.41 58.43,58.47l0 25.98 -181.57 0 0 -25.98c0,-32.06 26.41,-58.47 58.43,-58.47zm235.06 366.68c-4.29,-38.33 -8.58,-76.53 -12.87,-114.72 -53.15,10 -143.61,23.21 -197.09,21.53 -61.41,-2.08 -84.51,-31.66 -84.19,-119.44 19.48,22.09 46.88,37.77 81.54,38.2 80.22,0.83 155.5,2.21 234.72,-0.69 3.63,-146.25 16.18,-273.74 -129.74,-304.88 -59.43,-12.61 -138,-12.35 -194.45,4.33 -61.74,18.32 -92.11,47.64 -109.93,109.01 -33.02,114.59 -23.77,284.44 50.18,350.01 84.52,75.14 255.19,48.33 361.83,16.67zm2753.64 -457.24l12.55 117.1c50.84,-4.89 92.77,-18.32 146.25,-22.09 80.55,-2.91 132.06,-4.85 129.41,53.61 -60.41,-0.26 -120.83,0 -183.56,0.4 -75.93,0.69 -139.31,36.81 -130.73,191.28 9.91,185.54 230.43,171.93 330.79,97.49l0 41.66 116.87 0c-2.97,-189.3 10.56,-388.33 -23.44,-442.08 -65.04,-102.64 -278.63,-65 -398.14,-37.37zm-3706.74 472.92c27.4,0 21.79,2.38 38.3,-20.27 112.25,-153.74 218.22,-481.53 216.9,-664.43 -52.16,-2.24 -104.98,6.37 -157.8,19.02 -50.51,299.99 -95.08,379.16 -175.96,532.21l0 0c-80.88,-153.05 -125.45,-232.22 -176.29,-532.21 -52.82,-12.65 -105.31,-21.26 -157.8,-19.02 -1.32,182.89 104.65,510.68 216.9,664.43 16.5,22.65 11.22,20.27 38.3,20.27l157.47 0zm3458.15 12.64c72.3,-8.75 133.37,-45.56 154.17,-154.57 13.2,-69.72 11.22,-182.1 -8.25,-247.93 -9.24,-30.57 -22.78,-56.39 -42.92,-73.19 -34,-28.19 -71.31,-33.18 -104.65,-34.6 -55.79,-2.08 -85.83,7.66 -126.11,40.15 -7.93,6.24 -14.85,9.05 -14.85,-2.08l-0.99 -232.65 -129.08 2.08 0.66 667.23c55.13,37.24 207.32,43.48 272.03,35.56z"/>
  </g>
 </g>
</svg>
