<svg width="20" height="20" viewBox="0 0 20 20" fill="none" xmlns="http://www.w3.org/2000/svg">
<path d="M7.34907 3.26124C8.649 2.91292 10.0177 2.91292 11.3176 3.26124C12.6176 3.60955 13.8029 4.2939 14.7545 5.24551C15.7061 6.19713 16.3905 7.38246 16.7388 8.68239C17.0871 9.98231 17.0871 11.351 16.7388 12.6509" stroke="#DD405F" stroke-width="2" stroke-linecap="round" stroke-linejoin="round"/>
<path d="M14.7545 16.0878C13.3167 17.5256 11.3667 18.3333 9.33335 18.3333C7.30003 18.3333 5.34998 17.5256 3.9122 16.0878C2.47442 14.65 1.66669 12.7 1.66669 10.6667C1.66669 8.63334 2.47442 6.68329 3.9122 5.24552" stroke="#DD405F" stroke-width="2"/>
<path d="M16.9167 18.25L1.75 3.08333" stroke="#DD405F" stroke-width="2" stroke-linecap="round" stroke-linejoin="round"/>
<path d="M15.85 1.14482C16.5706 1.3379 17.2277 1.71727 17.7552 2.2448C18.2827 2.77232 18.6621 3.42941 18.8552 4.15002" stroke="#DD405F" stroke-width="2" stroke-linecap="round"/>
</svg>
