<svg width="16" height="16" viewBox="0 0 16 16" fill="none" xmlns="http://www.w3.org/2000/svg">
<circle opacity="0.2" cx="8" cy="8" r="8" fill="#FD1F9B"/>
<path d="M7.95192 3.7692C7.86417 3.7818 7.78347 3.82432 7.72346 3.88958L5.18731 6.4615H3.38462C3.15385 6.4615 3 6.61535 3 6.84612V7.61535C3 7.84612 3.15385 7.99997 3.38462 7.99997H3.42077L4.46615 11.5819C4.50462 11.7357 4.65846 11.8461 4.85077 11.8461H11.1969C11.3508 11.8461 11.5046 11.7354 11.5815 11.5815L12.6154 7.99997C12.8462 7.99997 13 7.84612 13 7.61535V6.84612C13 6.61535 12.8462 6.4615 12.6154 6.4615H10.8485L8.27692 3.87727C8.23478 3.83538 8.18351 3.80381 8.12712 3.78506C8.07073 3.76631 8.01076 3.76088 7.95192 3.7692ZM8 4.70689L9.76692 6.4615H6.26923L8 4.7065V4.70689ZM9.755 7.53112C9.83192 7.53112 9.90115 7.55766 9.95885 7.61535L10.2358 7.87997C10.3512 7.99535 10.3512 8.19689 10.2358 8.31227L7.92808 10.62C7.81269 10.7354 7.61077 10.7354 7.495 10.62L6.19731 9.30997C6.08192 9.19458 6.08192 9.00497 6.19731 8.88958L6.46154 8.61266C6.57692 8.49727 6.76692 8.49727 6.88231 8.61266L7.73577 9.4665L9.53846 7.61535C9.59681 7.55998 9.67457 7.52974 9.755 7.53112Z" fill="#FD1F9B"/>
</svg>
