<?xml version="1.0" encoding="UTF-8"?>
<!DOCTYPE svg PUBLIC "-//W3C//DTD SVG 1.1//EN" "http://www.w3.org/Graphics/SVG/1.1/DTD/svg11.dtd">
<!-- Creator: CorelDRAW 2020 (64-Bit) -->
<svg xmlns="http://www.w3.org/2000/svg" xml:space="preserve" width="8.26772in" height="11.6929in" version="1.1" style="shape-rendering:geometricPrecision; text-rendering:geometricPrecision; image-rendering:optimizeQuality; fill-rule:evenodd; clip-rule:evenodd"
viewBox="0 0 8267.72 11692.91"
 xmlns:xlink="http://www.w3.org/1999/xlink"
 xmlns:xodm="http://www.corel.com/coreldraw/odm/2003">
 <defs>
  <style type="text/css">
   <![CDATA[
    .str0 {stroke:white;stroke-width:7.87;stroke-miterlimit:2.61313}
    .fil1 {fill:#B3B3B3}
    .fil0 {fill:white}
    .fil2 {fill:#005992;fill-rule:nonzero;fill-opacity:0.031373}
    .fil3 {fill:#D71049;fill-rule:nonzero;fill-opacity:0.031373}
   ]]>
  </style>
 </defs>
 <g id="Layer_x0020_1">
  <metadata id="CorelCorpID_0Corel-Layer"/>
  <g id="_2261392021120">
   <path class="fil0 str0" d="M1851.67 2219.05l4558.76 0c21.66,0 39.37,17.72 39.37,39.37l0 1021.06 -4637.5 0 0 -1021.06c0,-21.65 17.72,-39.37 39.37,-39.37z"/>
   <rect class="fil0 str0" x="1812.3" y="4339.9" width="4637.5" height="3013.54" rx="56.52" ry="78.74"/>
   <path class="fil0 str0" d="M1891.04 7353.43l4480.02 0c0,43.31 35.43,78.74 78.74,78.74l0 2042.11 -4637.5 0 0 -2042.11c43.31,0 78.74,-35.43 78.74,-78.74z"/>
   <path class="fil0 str0" d="M1891.04 4339.9l4480.03 0c0,-43.3 35.43,-78.74 78.74,-78.74l0 -981.69 -4637.5 0 0 981.69c43.3,0 78.74,35.43 78.74,78.74z"/>
   <g>
    <circle class="fil1" cx="1975.3" cy="4339.8" r="13.54"/>
    <circle class="fil1" cx="2114.38" cy="4339.8" r="13.54"/>
    <circle class="fil1" cx="2253.46" cy="4339.8" r="13.54"/>
    <circle class="fil1" cx="2392.54" cy="4339.8" r="13.54"/>
    <circle class="fil1" cx="2531.62" cy="4339.8" r="13.54"/>
    <circle class="fil1" cx="2670.7" cy="4339.8" r="13.54"/>
    <circle class="fil1" cx="2809.78" cy="4339.8" r="13.54"/>
    <circle class="fil1" cx="2948.87" cy="4339.8" r="13.54"/>
    <circle class="fil1" cx="3087.94" cy="4339.8" r="13.54"/>
    <circle class="fil1" cx="3227.03" cy="4339.8" r="13.54"/>
    <circle class="fil1" cx="3366.11" cy="4339.8" r="13.54"/>
    <circle class="fil1" cx="3505.19" cy="4339.8" r="13.54"/>
    <circle class="fil1" cx="3644.27" cy="4339.8" r="13.54"/>
    <circle class="fil1" cx="3783.35" cy="4339.8" r="13.54"/>
    <circle class="fil1" cx="3922.43" cy="4339.8" r="13.54"/>
    <circle class="fil1" cx="4061.51" cy="4339.8" r="13.54"/>
    <circle class="fil1" cx="4200.59" cy="4339.8" r="13.54"/>
    <circle class="fil1" cx="4339.67" cy="4339.8" r="13.54"/>
    <circle class="fil1" cx="4478.75" cy="4339.8" r="13.54"/>
    <circle class="fil1" cx="4617.83" cy="4339.8" r="13.54"/>
    <circle class="fil1" cx="4756.91" cy="4339.8" r="13.54"/>
    <circle class="fil1" cx="4896" cy="4339.8" r="13.54"/>
    <circle class="fil1" cx="5035.07" cy="4339.8" r="13.54"/>
    <circle class="fil1" cx="5174.16" cy="4339.8" r="13.54"/>
    <circle class="fil1" cx="5313.24" cy="4339.8" r="13.54"/>
    <circle class="fil1" cx="5452.32" cy="4339.8" r="13.54"/>
    <circle class="fil1" cx="5591.4" cy="4339.8" r="13.54"/>
    <circle class="fil1" cx="5730.48" cy="4339.8" r="13.54"/>
    <circle class="fil1" cx="5869.56" cy="4339.8" r="13.54"/>
    <circle class="fil1" cx="6008.64" cy="4339.8" r="13.54"/>
    <circle class="fil1" cx="6147.72" cy="4339.8" r="13.54"/>
    <circle class="fil1" cx="6286.8" cy="4339.8" r="13.54"/>
   </g>
   <g>
    <circle class="fil1" cx="1975.3" cy="7353.43" r="13.54"/>
    <circle class="fil1" cx="2114.38" cy="7353.43" r="13.54"/>
    <circle class="fil1" cx="2253.46" cy="7353.43" r="13.54"/>
    <circle class="fil1" cx="2392.54" cy="7353.43" r="13.54"/>
    <circle class="fil1" cx="2531.62" cy="7353.43" r="13.54"/>
    <circle class="fil1" cx="2670.7" cy="7353.43" r="13.54"/>
    <circle class="fil1" cx="2809.78" cy="7353.43" r="13.54"/>
    <circle class="fil1" cx="2948.87" cy="7353.43" r="13.54"/>
    <circle class="fil1" cx="3087.94" cy="7353.43" r="13.54"/>
    <circle class="fil1" cx="3227.03" cy="7353.43" r="13.54"/>
    <circle class="fil1" cx="3366.11" cy="7353.43" r="13.54"/>
    <circle class="fil1" cx="3505.19" cy="7353.43" r="13.54"/>
    <circle class="fil1" cx="3644.27" cy="7353.43" r="13.54"/>
    <circle class="fil1" cx="3783.35" cy="7353.43" r="13.54"/>
    <circle class="fil1" cx="3922.43" cy="7353.43" r="13.54"/>
    <circle class="fil1" cx="4061.51" cy="7353.43" r="13.54"/>
    <circle class="fil1" cx="4200.59" cy="7353.43" r="13.54"/>
    <circle class="fil1" cx="4339.67" cy="7353.43" r="13.54"/>
    <circle class="fil1" cx="4478.75" cy="7353.43" r="13.54"/>
    <circle class="fil1" cx="4617.83" cy="7353.43" r="13.54"/>
    <circle class="fil1" cx="4756.91" cy="7353.43" r="13.54"/>
    <circle class="fil1" cx="4896" cy="7353.43" r="13.54"/>
    <circle class="fil1" cx="5035.07" cy="7353.43" r="13.54"/>
    <circle class="fil1" cx="5174.16" cy="7353.43" r="13.54"/>
    <circle class="fil1" cx="5313.24" cy="7353.43" r="13.54"/>
    <circle class="fil1" cx="5452.32" cy="7353.43" r="13.54"/>
    <circle class="fil1" cx="5591.4" cy="7353.43" r="13.54"/>
    <circle class="fil1" cx="5730.48" cy="7353.43" r="13.54"/>
    <circle class="fil1" cx="5869.56" cy="7353.43" r="13.54"/>
    <circle class="fil1" cx="6008.64" cy="7353.43" r="13.54"/>
    <circle class="fil1" cx="6147.72" cy="7353.43" r="13.54"/>
    <circle class="fil1" cx="6286.8" cy="7353.43" r="13.54"/>
   </g>
   <g>
    <path class="fil2" d="M3946.94 4600.78c157.24,-22.87 318.41,-15.33 473.39,19.43 10.68,2.73 21.68,5.3 32.76,7.79 267.99,71.59 510.71,233 678.79,453.89 101.7,131.8 175.22,284.62 218.4,445.22 43.26,167.83 49.93,344.33 25.69,515.62 -4.5,15.81 -6.02,32.11 -7.06,48.4l-3.85 5.86c-16.13,99.85 -53.22,194.88 -93.67,287.1 -231.25,-118.87 -479.11,-207.96 -736.43,-248.66 -13.08,-1.69 -25.69,-4.81 -37.88,-9.07 0.8,-216.31 1.04,-432.62 -0.16,-648.93 -244,0.08 -488.09,0.72 -732.09,-0.32 -8.92,30.1 -2,61.08 -1.61,91.74 -2.65,163.26 -0.39,326.19 -1.44,489.21 -5.22,23.36 4.74,52.73 -6.82,72.72 -267.29,38.77 -526.21,128.26 -765.33,253.31 -74.89,-164.95 -120.47,-345.06 -117.03,-526.93 -8.02,-312.31 113.58,-623.73 322.91,-854.57 193.68,-215.67 463.93,-361.99 751.44,-401.8z"/>
    <path class="fil3" d="M3624.67 6330.23c366.09,-84.69 752.4,-74.16 1114.23,26.09 152.82,42.37 299.87,103.29 441.29,174.57 -0.88,5.7 -1.52,11.4 -2.09,17.18 -82.42,116.94 -180.92,223.3 -296.26,308.37 -238.63,179.3 -542.65,266.8 -839.96,246.24 -285.02,-20.62 -563.13,-139.89 -770.86,-336.94 -67.66,-61.41 -126.17,-132.11 -178.99,-206.44 -6.98,-8.19 -9.87,-18.3 -12.28,-28.41 172.65,-88.46 355.25,-158.69 544.91,-200.66z"/>
   </g>
  </g>
 </g>
</svg>
