<svg width="20" height="20" viewBox="0 0 20 20" fill="none" xmlns="http://www.w3.org/2000/svg">
<path d="M6.77777 7.74075L9.88772 10.0732C10.3062 10.3871 10.8958 10.3254 11.2403 9.93172L17.3704 2.92593" stroke="#30D988" stroke-width="2" stroke-linecap="round"/>
<path d="M18.3333 9.66667C18.3333 11.4775 17.7661 13.2429 16.7113 14.7148C15.6566 16.1867 14.1672 17.2913 12.4525 17.8734C10.7377 18.4555 8.88374 18.4858 7.15087 17.9602C5.418 17.4345 3.89331 16.3792 2.79094 14.9426C1.68857 13.506 1.06389 11.7601 1.00464 9.95023C0.945391 8.14036 1.45455 6.35739 2.4606 4.85173C3.46665 3.34606 4.91905 2.19335 6.61383 1.55548C8.30861 0.917612 10.1606 0.826629 11.9098 1.29531" stroke="#30D988" stroke-width="2" stroke-linecap="round"/>
</svg>
