<svg width="16" height="16" viewBox="0 0 16 16" fill="none" xmlns="http://www.w3.org/2000/svg">
<circle opacity="0.2" cx="8" cy="8" r="8" fill="#017EFA"/>
<g clip-path="url(#clip0_20_37)">
<path d="M8.00001 3.83334C5.70001 3.83334 3.83334 5.70001 3.83334 8.00001C3.83334 10.3 5.70001 12.1667 8.00001 12.1667C10.3 12.1667 12.1667 10.3 12.1667 8.00001C12.1667 5.70001 10.3 3.83334 8.00001 3.83334ZM8.36668 10.4V10.9167H7.63751V10.3792C7.32918 10.3042 6.64168 10.0583 6.37918 9.14584L7.06668 8.86668C7.09168 8.95834 7.30834 9.73751 8.06668 9.73751C8.45418 9.73751 8.89168 9.53751 8.89168 9.06668C8.89168 8.66668 8.60001 8.45834 7.94168 8.22084C7.48334 8.05834 6.54584 7.79168 6.54584 6.84168C6.54584 6.80001 6.55001 5.84168 7.63751 5.60834V5.08334H8.36668V5.60001C9.13334 5.73334 9.41251 6.34584 9.47501 6.52918L8.81668 6.80834C8.77084 6.66251 8.57084 6.25001 8.02501 6.25001C7.73334 6.25001 7.27084 6.40418 7.27084 6.82918C7.27084 7.22501 7.62918 7.37501 8.37084 7.62084C9.37084 7.96668 9.62501 8.47501 9.62501 9.05834C9.62501 10.1542 8.58334 10.3625 8.36668 10.4Z" fill="#017EFA"/>
</g>
<defs>
<clipPath id="clip0_20_37">
<rect width="10" height="10" fill="white" transform="translate(3 3)"/>
</clipPath>
</defs>
</svg>
