<svg width="16" height="17" viewBox="0 0 16 17" fill="none" xmlns="http://www.w3.org/2000/svg">
<path d="M8 2L7.46967 1.46967L8 0.93934L8.53033 1.46967L8 2ZM8.75 11C8.75 11.4142 8.41421 11.75 8 11.75C7.58579 11.75 7.25 11.4142 7.25 11L8.75 11ZM2.46967 6.46967L7.46967 1.46967L8.53033 2.53033L3.53033 7.53033L2.46967 6.46967ZM8.53033 1.46967L13.5303 6.46967L12.4697 7.53033L7.46967 2.53033L8.53033 1.46967ZM8.75 2L8.75 11L7.25 11L7.25 2L8.75 2Z" fill="#51CBFF"/>
<path d="M1 13L1 14C1 15.1046 1.89543 16 3 16L13 16C14.1046 16 15 15.1046 15 14V13" stroke="white" stroke-width="1.5"/>
</svg>
