<svg viewBox="0 0 27 22" fill="none" xmlns="http://www.w3.org/2000/svg">
<path d="M0 4.375H23.05C24.1701 4.375 24.7302 4.375 25.158 4.59299C25.5343 4.78473 25.8403 5.09069 26.032 5.46702C26.25 5.89484 26.25 6.45489 26.25 7.575V18.675C26.25 19.7951 26.25 20.3552 26.032 20.783C25.8403 21.1593 25.5343 21.4653 25.158 21.657C24.7302 21.875 24.1701 21.875 23.05 21.875H3.2C2.0799 21.875 1.51984 21.875 1.09202 21.657C0.715695 21.4653 0.409734 21.1593 0.217987 20.783C0 20.3552 0 19.7951 0 18.675V4.375Z" fill="#017EFA"/>
<path d="M7.29169 12.3958L10.9375 16.0417L18.2292 8.75" stroke="white" stroke-width="2"/>
<path d="M0 4C0 2.11438 0 1.17157 0.585786 0.585786C1.17157 0 2.11438 0 4 0H8.55148C9.36898 0 9.77773 0 10.1453 0.152241C10.5128 0.304482 10.8018 0.593512 11.3799 1.17157L14.5833 4.375H0V4Z" fill="#017EFA"/>
</svg>
