<svg width="101" height="105" viewBox="0 0 101 105" fill="none" xmlns="http://www.w3.org/2000/svg">
<path d="M0 50.25C0 22.4977 22.4977 0 50.25 0V0C78.0023 0 100.5 22.4977 100.5 50.25V50.25C100.5 78.0023 78.0023 100.5 50.25 100.5V100.5C22.4977 100.5 0 78.0023 0 50.25V50.25Z" fill="white" fill-opacity="0.8"/>
<circle cx="50.2501" cy="39.0833" r="22.3333" fill="#272727"/>
<path fill-rule="evenodd" clip-rule="evenodd" d="M89.2541 102.658C89.2469 102.755 89.1839 102.839 89.0918 102.872C83.1094 105 74.455 105 61.0002 105H40.0002C26.1512 105 17.3879 105 11.3896 102.679C11.3001 102.645 11.2399 102.562 11.2334 102.466C11.1895 101.815 11.1672 101.16 11.1672 100.5C11.1672 81.9985 28.6654 67 50.2506 67C71.8357 67 89.3339 81.9985 89.3339 100.5C89.3339 101.225 89.307 101.944 89.2541 102.658Z" fill="#272727"/>
</svg>
