<svg xmlns="http://www.w3.org/2000/svg" width="208.605" height="30" viewBox="0 0 208.605 30">
  <g id="Group_2807" data-name="Group 2807" transform="translate(-239.95 -178.141)">
    <g id="Group_2803" data-name="Group 2803" transform="translate(239.95 178.285)">
      <path id="Path_657" data-name="Path 657" d="M264.847,179.248l-8.291,23.737h-8.1l-8.505-23.737h6.181l6.349,18.271,6.191-18.271Z" transform="translate(-239.95 -178.979)" fill="#fff"/>
      <path id="Path_658" data-name="Path 658" d="M332.914,201.849a60.131,60.131,0,0,1-9.4.962c-9.664,0-11.659-5.16-11.659-12.056,0-6.7,1.676-12.226,11.659-12.226a49.415,49.415,0,0,1,9.4.917l-.43,3.905a55.735,55.735,0,0,0-8.966-.956c-4.84,0-5.508,2.644-5.508,8.359,0,5.681.787,8.18,5.508,8.18a65.786,65.786,0,0,0,8.951-.975Z" transform="translate(-285.015 -178.528)" fill="#fff"/>
      <path id="Path_659" data-name="Path 659" d="M389.711,179.208c5.712,0,9.219,2.284,9.219,6.513a5.69,5.69,0,0,1-2.115,4.86,5.473,5.473,0,0,1,3.031,5.1c0,5.5-4.269,7.279-9.491,7.279H379.2V179.208Zm-4.555,3.882v5.859h4.928c2.174,0,2.858-.762,2.858-3.228,0-2.188-.586-2.631-3.232-2.631Zm0,9.7v6.306h5.2c2.482,0,3.5-.561,3.5-3.406,0-2.9-1.966-2.9-3.775-2.9Z" transform="translate(-327.225 -178.954)" fill="#fff"/>
    </g>
    <g id="Group_2805" data-name="Group 2805" transform="translate(319.11 178.141)">
      <g id="Group_2804" data-name="Group 2804" transform="translate(0)">
        <path id="Path_660" data-name="Path 660" d="M614.014,184.406a14.954,14.954,0,0,0-3.642.5V178.16h-4.334V202.4l.563.048c1.876.16,3.5.267,5.309.267,8.164,0,9.8-3.633,9.8-9.5C621.714,187.779,620.426,184.406,614.014,184.406Zm3.293,8.877c0,4.63-.718,6.184-4.972,6.258-.447.012-1.079,0-1.963-.038V188.112a13.717,13.717,0,0,1,3.642-.554C616.444,187.558,617.307,188.423,617.307,193.283Z" transform="translate(-548.551 -178.152)" fill="#fff"/>
        <path id="Path_661" data-name="Path 661" d="M661.292,194.984a61.33,61.33,0,0,0-6.468.474l-.663.071.6,3.157.563-.058c2.286-.235,4.312-.429,5.971-.429,1.792,0,2.49.74,2.49,2.639v.859l-4.365.405c-4.243.362-6.395,2.234-6.395,5.565,0,3.469,2.349,5.625,6.132,5.625a26.881,26.881,0,0,0,8.543-1.477l.427-.138V200.928C668.124,197.095,665.7,194.984,661.292,194.984Zm2.489,9.89v4.646a19.447,19.447,0,0,1-4.512.627c-1.155-.032-1.844-.959-1.844-2.48,0-1.414.4-2.269,2.412-2.453Z" transform="translate(-577.997 -188.697)" fill="#fff"/>
        <path id="Path_662" data-name="Path 662" d="M709.089,194.966a20.064,20.064,0,0,0-7.586,1.55l-.4.151v16.318h4.337V198.671a13.738,13.738,0,0,1,3.644-.554c2.474,0,3.815.9,3.815,5.663v9.2h4.411V203.78C717.316,197.684,714.779,194.966,709.089,194.966Z" transform="translate(-608.135 -188.686)" fill="#fff"/>
        <path id="Path_663" data-name="Path 663" d="M769.794,184.732h-5.275l-6.061,6.059h-1.613v-12.65h-4.338v24.295h4.339v-7.478h1.6l6.031,7.478h5.063l-7.855-9.564Z" transform="translate(-640.348 -178.141)" fill="#fff"/>
        <path id="Path_664" data-name="Path 664" d="M462.986,178.154h-10.96v24.294h10.96c9.3,0,10.017-9.538,10.017-12.461C473,182.467,469.352,178.154,462.986,178.154Zm5.569,11.834c0,4.377-1.463,9.055-5.57,9.055H456.4V181.56h6.585C468.013,181.56,468.555,187.454,468.555,189.988Z" transform="translate(-452.026 -178.149)" fill="#fff"/>
        <rect id="Rectangle_342" data-name="Rectangle 342" width="4.338" height="17.708" transform="translate(24.714 6.591)" fill="#fff"/>
        <path id="Path_665" data-name="Path 665" d="M545.634,195.01c-8.154,0-9.792,3.635-9.792,9.5,0,4.319.932,8.315,7.7,8.315a15,15,0,0,0,3.614-.495c-.172,2.52-1,3.24-3.406,3.24a28.114,28.114,0,0,1-6.266-1l-.578-.143-.862,3.061.614.154a31.861,31.861,0,0,0,7.13,1.073c7.139-.038,7.731-4.154,7.731-8.736V195.311l-.981-.069C549,195.134,547.263,195.01,545.634,195.01Zm1.547,3.214v10.9a13.833,13.833,0,0,1-3.642.555c-2.584,0-3.292-1.124-3.292-5.226,0-4.753.7-6.239,5.088-6.279h.095C545.923,198.169,546.644,198.2,547.181,198.224Z" transform="translate(-504.556 -188.713)" fill="#fff"/>
        <rect id="Rectangle_343" data-name="Rectangle 343" width="4.338" height="17.708" transform="translate(50.252 6.591)" fill="#fff"/>
      </g>
      <rect id="Rectangle_344" data-name="Rectangle 344" width="4.338" height="4.338" rx="1.922" transform="translate(24.714 0.008)" fill="#fff"/>
      <rect id="Rectangle_345" data-name="Rectangle 345" width="4.338" height="4.338" rx="1.922" transform="translate(50.252 0.008)" fill="#fff"/>
    </g>
  </g>
</svg>
