<?xml version="1.0" encoding="UTF-8"?>
<!DOCTYPE svg PUBLIC "-//W3C//DTD SVG 1.1//EN" "http://www.w3.org/Graphics/SVG/1.1/DTD/svg11.dtd">
<!-- Creator: CorelDRAW 2020 (64-Bit) -->
<svg xmlns="http://www.w3.org/2000/svg" xml:space="preserve" width="11.6929in" height="8.26772in" version="1.1" style="shape-rendering:geometricPrecision; text-rendering:geometricPrecision; image-rendering:optimizeQuality; fill-rule:evenodd; clip-rule:evenodd"
viewBox="0 0 11692.91 8267.72"
 xmlns:xlink="http://www.w3.org/1999/xlink"
 xmlns:xodm="http://www.corel.com/coreldraw/odm/2003">
 <defs>
  <style type="text/css">
   <![CDATA[
    .fil2 {fill:#EC9B4D}
    .fil0 {fill:white}
    .fil1 {fill:white;fill-rule:nonzero}
   ]]>
  </style>
 </defs>
 <g id="Layer_x0020_1">
  <metadata id="CorelCorpID_0Corel-Layer"/>
  <g id="_2218787070416">
   <path class="fil0" d="M5640.41 4444.33l-352.19 0c0,-118.81 85.63,-360.55 88.01,-469.56l425.57 0c106.28,0 8.61,292.39 -2.45,335.01 -22.61,86.93 -43.9,134.55 -158.94,134.55l0 0zm-220.14 -675c12.89,-26.81 98.8,-422.6 102.72,-469.56 197.03,0 425.57,-48.96 425.57,88.04 0,113.57 -40.75,305.7 -103.7,351.22 -73.17,52.91 -300.72,30.31 -424.59,30.31l0 -0.01zm-557.62 851.1l968.48 0c208.02,0 291.62,-121.81 334.82,-281.52 22.76,-84.13 75.69,-300.37 48.1,-394.48 -19.88,-67.75 -28.29,-54.24 -60.07,-101.72 138.07,-49.98 176.09,-435.7 176.09,-557.62 0,-112.43 -133.52,-161.42 -249.47,-161.42l-909.81 0c-1.33,62.35 -22.26,117.85 -35.5,184.6 -13.24,66.97 -23.74,123.06 -37.88,182.25 -29.76,125.07 -50.06,242.96 -79.54,375.34 -27.94,125.63 -153.41,672.93 -155.23,754.56l0 0.02z"/>
   <path class="fil0" d="M4172.97 4444.33c-177.45,0 -224.16,27.17 -132.52,-337.95 47.31,-188.53 93.81,-175.64 235.24,-175.64 152.08,0 78.49,211.21 41.31,349.47 -20.02,74.38 -45.33,164.11 -144.03,164.11l0 0zm176.1 -733.69c-117.25,0 -93.03,8.09 -190.77,-14.68 -15.23,-65.35 6.98,-166.65 27.15,-236.98 35.57,-124 57.56,-144.54 192.96,-144.54 131.98,0 117.42,42.89 117.42,117.39 0,93.04 -28.85,278.81 -146.76,278.81l0 0zm-557.62 -29.35c0,87.56 22.61,78.18 58.7,132.07 -98.09,51.91 -129.46,69.57 -176.23,175.94 -32.95,74.94 -59.14,179.33 -77.31,274.87 -79.79,419.37 151.72,356.25 723.12,356.25 165.1,0 287.91,-40.99 357.65,-185.26 36.97,-76.52 201.86,-555.69 9.17,-607.13l0 -29.35c114.34,-30.52 155.44,-276.3 174.28,-383.44 62.59,-355.79 -200.95,-291.57 -673.19,-291.57 -147.2,0 -257.89,63.98 -307.78,161.78 -35.41,69.41 -88.42,289.72 -88.42,395.83l0 0z"/>
   <path class="fil0" d="M6241.99 4209.55c0,536.73 642.41,410.86 1188.62,410.86 5.18,-62.63 27.87,-109.05 29.34,-176.09l-586.96 0c-226.09,0 -230.43,-202.01 -210.69,-357.46 6.65,-52.44 -7.7,-97.43 49.3,-97.43l645.63 0c0,-251.51 230.7,-205.43 -631,-205.43 2.31,-103.48 80.03,-277.59 129.46,-340.13 76.6,-96.94 186.88,-129.44 354.78,-129.44l528.28 0c0,-79.93 23.53,-121.13 29.34,-190.77 -812.83,0 -1213.33,-106.46 -1425.34,526.29 -42.85,128 -100.76,388.87 -100.76,559.59l0 -0z"/>
   <path class="fil0" d="M2206.66 4620.41l410.87 0c2.96,-133.05 117.39,-477.37 117.39,-616.3l675.01 0c6.4,-76.99 29.35,-93.02 29.35,-190.77l-660.33 0c26.14,-54.48 31.84,-158.39 95.36,-286.17 45.14,-90.81 94.12,-154.81 195.66,-185.85 151.95,-46.46 526.7,-26.89 736.17,-26.89 17.75,-76.21 29.35,-91.7 29.35,-190.76 -338.48,0 -953.7,-53.28 -1184.7,135.95 -240.46,196.97 -280.89,558.86 -344.97,858.3 -21.26,99.35 -99.14,425.64 -99.14,502.49l-0.01 0z"/>
   <path class="fil0" d="M7753.46 3314.43l381.52 0 -201.72 972.24c-19.6,99.47 -62.45,232.12 -62.45,333.74 438.59,0 377.04,6.82 539.34,-751.95 139.83,-653.44 69.74,-556.05 267.61,-554.16 92.84,0.89 186.04,0.13 278.95,0.13 17.72,-76.21 29.34,-91.71 29.34,-190.76l-1188.62 0c-14.35,61.61 -29.26,127.55 -44.04,190.76l0.07 0z"/>
   <path class="fil1" d="M2534.12 5528.18l-265.11 0 -74 121.98 -140.69 0 368.39 -569.25 130.11 0 139.87 569.25 -131.74 0 -26.83 -121.98zm-21.96 -100.02l-47.98 -219.57 -134.18 219.57 182.16 0zm496.07 231.76c-71.57,0 -127.68,-17.75 -168.34,-53.26 -40.65,-35.51 -60.98,-84.17 -60.98,-145.96 0,-17.89 2.17,-38.23 6.5,-60.99l63.44 -318.78 132.55 0 -63.44 316.34c-3.25,17.89 -4.88,33.88 -4.88,47.98 0,34.16 9.35,59.77 28.06,76.85 18.7,17.08 45.94,25.62 81.72,25.62 40.11,0 72.09,-11.92 95.95,-35.78 23.86,-23.85 41.2,-62.07 52.05,-114.65l63.43 -316.34 129.3 0 -64.24 324.47c-34.7,169.7 -131.74,254.54 -291.13,254.54l-0.01 -0.02zm572.48 -471.67l-182.15 0 21.95 -107.34 496.06 0 -21.96 107.34 -181.35 0 -92.7 461.91 -131.74 0 91.89 -461.91 0 0zm579.82 471.67c-56.93,0 -106.25,-10.3 -148,-30.91 -41.74,-20.6 -73.74,-49.6 -95.96,-87.01 -22.23,-37.42 -33.34,-80.52 -33.34,-129.3 0,-64.51 14.77,-122.65 44.32,-174.43 29.54,-51.77 71.02,-92.57 124.42,-122.39 53.39,-29.82 114.53,-44.72 183.37,-44.72 56.93,0 106.24,10.3 148.04,30.91 41.73,20.6 73.73,49.6 95.92,87.02 22.2,37.41 33.33,80.51 33.33,129.3 0,64.51 -14.78,122.66 -44.32,174.43 -29.55,51.77 -71,92.57 -124.42,122.39 -53.38,29.81 -114.5,44.72 -183.36,44.72l0.01 0zm11.39 -112.22c41.74,0 78.34,-10.04 109.78,-30.09 31.44,-20.06 55.6,-46.9 72.41,-80.51 16.8,-33.61 25.2,-70.74 25.2,-111.41 0,-43.37 -13.58,-77.93 -40.68,-103.68 -27.09,-25.74 -65.32,-38.63 -114.67,-38.63 -41.74,0 -78.34,10.02 -109.79,30.09 -31.44,20.06 -55.57,46.9 -72.37,80.51 -16.81,33.61 -25.21,70.74 -25.21,111.41 0,43.37 13.56,77.93 40.65,103.68 27.11,25.75 65.33,38.63 114.67,38.63zm857.92 -191.1c24.44,9.76 43.27,24.26 56.5,43.51 13.3,19.25 19.96,42.7 19.96,70.34 0,59.09 -23.31,103.81 -69.95,134.18 -46.63,30.37 -108.67,45.54 -186.24,45.54l-298.42 0 113.85 -569.25 274.89 0c61.26,0 108.39,11.25 141.5,33.75 33.05,22.5 49.57,54.62 49.57,96.37 0,34.69 -9.1,64.38 -27.24,89.04 -18.13,24.68 -42.99,43.51 -74.43,56.52l0 0.01zm-253.74 -176.46l-26.82 134.18 134.15 0c34.73,0 61.69,-6.91 80.94,-20.74 19.26,-13.83 28.85,-33.74 28.85,-59.77 0,-35.79 -27.87,-53.67 -83.74,-53.67l-133.38 0 0 0zm82.13 370.82c36.9,0 65.61,-7.05 86.26,-21.14 20.59,-14.09 30.88,-34.43 30.88,-60.99 0,-39.03 -28.5,-58.55 -85.42,-58.55l-159.36 0 -27.66 140.69 155.3 0 0 0zm720.55 -22.77l-265.09 0 -74.01 121.98 -140.73 0 368.43 -569.25 130.09 0 139.89 569.25 -131.77 0 -26.82 -121.98 0 0zm-21.98 -100.02l-47.96 -219.57 -134.15 219.57 182.11 0zm875.85 -347.24l-113.85 569.25 -108.18 0 -212.22 -356.19 -71.56 356.19 -130.17 0 113.85 -569.25 109.02 0 212.22 357 70.79 -357 130.09 0 0 0zm369.2 263.48l197.59 305.77 -148.02 0 -146.33 -222.82 -91.93 81.32 -28.43 141.5 -130.93 0 113.85 -569.25 130.93 0 -52.09 261.04 295.19 -261.04 159.43 0 -299.25 263.48 0 0zm367.52 -263.48l132.61 0 -113.92 569.25 -132.54 0 113.85 -569.25zm788.81 0l-113.85 569.25 -108.11 0 -212.29 -356.19 -71.56 356.19 -130.09 0 113.85 -569.25 108.94 0 212.29 357 70.72 -357 130.09 0 0 0z"/>
   <path class="fil0" d="M8358.83 5506.09c-141.02,89.84 -329.57,-69.26 -235.4,-232.24 35.15,-60.9 92.42,-71.94 109.3,-79.28l-89.41 -88.95c-69.81,34.27 -133.59,102.55 -153.27,196.35 -43.13,205.75 138.99,383.29 343.86,337.56 76.6,-17.1 163.77,-80.1 192.41,-155.38l-140.87 -142.19c-17.08,-15.38 -23.74,-22.87 -29.06,-26.4l-158.87 0 176.16 178.3 -14.84 12.22 0 0.01z"/>
   <path class="fil2" d="M8213.19 5082.78l108.39 105.7c8.05,2.61 17.71,3.49 31.58,3.34 26.04,-0.28 59.65,-1.82 84.86,0.38 0.84,79.38 -0.84,105.93 1.33,117.16l113.29 106.3 1.82 -332.9 -341.27 0 0 0.02z"/>
  </g>
 </g>
</svg>
