<?xml version="1.0" encoding="UTF-8"?>
<!DOCTYPE svg PUBLIC "-//W3C//DTD SVG 1.1//EN" "http://www.w3.org/Graphics/SVG/1.1/DTD/svg11.dtd">
<!-- Creator: CorelDRAW 2020 (64-Bit) -->
<svg xmlns="http://www.w3.org/2000/svg" xml:space="preserve" width="11.6929in" height="8.26772in" version="1.1" style="shape-rendering:geometricPrecision; text-rendering:geometricPrecision; image-rendering:optimizeQuality; fill-rule:evenodd; clip-rule:evenodd"
viewBox="0 0 11692.91 8267.72"
 xmlns:xlink="http://www.w3.org/1999/xlink"
 xmlns:xodm="http://www.corel.com/coreldraw/odm/2003">
 <defs>
  <style type="text/css">
   <![CDATA[
    .fil0 {fill:#70BE0A}
    .fil1 {fill:white}
   ]]>
  </style>
 </defs>
 <g id="Layer_x0020_1">
  <metadata id="CorelCorpID_0Corel-Layer"/>
  <g id="_2396765831104">
   <circle class="fil0" cx="5483.12" cy="3697.17" r="2055.56"/>
   <path class="fil1" d="M5267.97 3827.06c-28.7,-39.48 -105.13,-107.51 -144.37,-146.71 -51.18,-51.13 -97.62,-98.33 -149.07,-148.98 -130.03,-128 -356.24,18.63 -282.93,197.91 22.35,54.64 352.57,371.13 434.45,453.39 31.21,31.35 121.54,129.05 150.59,146.44 146.37,-136.8 354.87,-353.94 504.21,-503.73l380.19 -380.07c37.11,-37.43 92.53,-80.08 115.64,-139.78 56.15,-145.05 -91.33,-284.95 -232.83,-226.81 -63.29,26 -208.56,185.84 -263.75,241.11 -35.22,35.28 -484.1,491.9 -512.15,507.22z"/>
  </g>
 </g>
</svg>
